<svg xmlns="http://www.w3.org/2000/svg" fill="none" viewBox="0 0 128 192">
    <rect width="64" height="128" fill="#552049"/>
    <circle cx="32" cy="32" r="14" stroke="#FFF7F0" stroke-width="4"/>
    <rect width="64" height="32" x="64" y="32" fill="#F6A560" rx="16"/>
    <path fill="#61C4B7" fill-rule="evenodd" d="M32 160L64 192V160H32Z" clip-rule="evenodd"/>
    <path fill="#61C4B7" fill-rule="evenodd" d="M64 128L96 160V128H64Z" clip-rule="evenodd"/>
    <circle cx="112" cy="48" r="14" stroke="#FFF7F0" stroke-width="4"/>
    <circle cx="112" cy="48" r="14" stroke="#FFF7F0" stroke-width="4"/>
    <rect width="4" height="4" x="64" y="14" fill="#030303"/>
    <rect width="4" height="4" x="68" y="14" fill="#030303"/>
    <rect width="4" height="4" x="92" y="14" fill="#030303"/>
    <path fill="#755CDE" fill-rule="evenodd" d="M96 0L128 32V0H96Z" clip-rule="evenodd"/>
    <rect width="4" height="4" x="96" y="14" fill="#030303"/>
    <rect width="4" height="4" x="120" y="14" fill="#030303"/>
    <rect width="4" height="4" x="124" y="14" fill="#030303"/>
    <circle cx="80" cy="80" r="14" stroke="#030303" stroke-width="4"/>
    <rect width="32" height="32" x="96" y="64" fill="#EB7565"/>
    <path fill="#FFF7F0" fill-rule="evenodd" d="M32 96L128 192V96H32Z" clip-rule="evenodd"/>
    <rect width="4" height="4" y="128" fill="#030303"/>
    <rect width="4" height="4" x="14" y="128" fill="#030303"/>
    <rect width="4" height="4" x="28" y="128" fill="#030303"/>
    <rect width="4" height="4" y="142" fill="#030303"/>
    <rect width="4" height="4" x="14" y="142" fill="#030303"/>
    <rect width="4" height="4" x="28" y="142" fill="#030303"/>
    <rect width="4" height="4" y="156" fill="#030303"/>
    <rect width="4" height="4" x="14" y="156" fill="#030303"/>
    <rect width="4" height="4" x="28" y="156" fill="#030303"/>
</svg>
