<svg xmlns="http://www.w3.org/2000/svg" fill="none" viewBox="0 0 160 64">
    <rect width="64" height="64" x="32" fill="#EB7565"/>
    <circle cx="16" cy="16" r="14" stroke="#030303" stroke-width="4"/>
    <circle cx="64" cy="32" r="14" stroke="#FFF7F0" stroke-width="4"/>
    <rect width="4" height="4" x="128" y="32" fill="#030303"/>
    <rect width="4" height="4" x="142" y="32" fill="#030303"/>
    <rect width="4" height="4" x="156" y="32" fill="#030303"/>
    <rect width="4" height="4" x="128" y="56" fill="#030303"/>
    <rect width="4" height="4" x="142" y="56" fill="#030303"/>
    <rect width="4" height="4" x="156" y="56" fill="#030303"/>
    <rect width="4" height="4" x="128" y="60" fill="#030303"/>
    <rect width="4" height="4" x="142" y="60" fill="#030303"/>
    <rect width="4" height="4" x="156" y="60" fill="#030303"/>
    <rect width="4" height="4" x="128" fill="#030303"/>
    <rect width="4" height="4" x="142" fill="#030303"/>
    <rect width="4" height="4" x="156" fill="#030303"/>
    <rect width="4" height="4" x="128" y="4" fill="#030303"/>
    <rect width="4" height="4" x="142" y="4" fill="#030303"/>
    <rect width="4" height="4" x="156" y="4" fill="#030303"/>
    <rect width="4" height="4" x="128" y="28" fill="#030303"/>
    <rect width="4" height="4" x="142" y="28" fill="#030303"/>
    <rect width="4" height="4" x="156" y="28" fill="#030303"/>
    <path fill="#FFF7F0" fill-rule="evenodd" d="M96 32L128 64V32H96Z" clip-rule="evenodd"/>
    <path fill="#552049" fill-rule="evenodd" d="M96 32L128 64V32H96Z" clip-rule="evenodd"/>
    <path fill="#F39E9E" fill-rule="evenodd" d="M32 64L0 32V64H32Z" clip-rule="evenodd"/>
    <path fill="#FFF7F0" fill-rule="evenodd" d="M96 32L128 0V32H96Z" clip-rule="evenodd"/>
</svg>
